<svg width="97" height="80" viewBox="0 0 97 80" fill="none" xmlns="http://www.w3.org/2000/svg">
<path d="M22.3221 33.9412L49.1922 7.07108C53.0975 3.16583 59.4291 3.16583 63.3344 7.07107L90.2045 33.9412L91.2166 34.9533C94.0038 37.7405 94.0038 42.2595 91.2166 45.0467V45.0467L63.3344 72.9289C59.4291 76.8342 53.0975 76.8342 49.1922 72.9289L22.3221 46.0588" stroke="black" stroke-width="2"/>
<path d="M73.9412 33.9412L47.0711 7.07108C43.1658 3.16583 36.8342 3.16583 32.9289 7.07107L6.05883 33.9412L5.04668 34.9533C2.25948 37.7405 2.25948 42.2595 5.04668 45.0467V45.0467L32.9289 72.9289C36.8342 76.8342 43.1658 76.8342 47.0711 72.9289L73.9412 46.0588" stroke="black" stroke-width="2"/>
<path d="M18.775 42.3999L18.0641 40.5835H15.775L15.0719 42.3999H14.4L16.6578 36.6655H17.2164L19.4625 42.3999H18.775ZM17.8571 39.9858L17.193 38.2163C17.1071 37.9924 17.0185 37.7176 16.9274 37.3921C16.8701 37.6421 16.788 37.9168 16.6813 38.2163L16.0094 39.9858H17.8571Z" fill="black"/>
<path d="M22.7594 39.4077H24.7008V42.1851C24.3987 42.2814 24.0914 42.3543 23.7789 42.4038C23.4664 42.4533 23.1045 42.478 22.693 42.478C21.8284 42.478 21.1552 42.2215 20.6735 41.7085C20.1917 41.1929 19.9508 40.4715 19.9508 39.5444C19.9508 38.9507 20.0693 38.4312 20.3063 37.9858C20.5459 37.5379 20.8896 37.1968 21.3375 36.9624C21.7854 36.7254 22.3102 36.6069 22.9117 36.6069C23.5211 36.6069 24.0888 36.7189 24.6149 36.9429L24.3571 37.5288C23.8414 37.3101 23.3453 37.2007 22.8688 37.2007C22.1735 37.2007 21.6305 37.4077 21.2399 37.8218C20.8492 38.2358 20.6539 38.8101 20.6539 39.5444C20.6539 40.3153 20.8414 40.8999 21.2164 41.2983C21.594 41.6968 22.1474 41.896 22.8766 41.896C23.2724 41.896 23.6591 41.8504 24.0367 41.7593V40.0015H22.7594V39.4077Z" fill="black"/>
<path d="M29.2594 42.3999H26.0758V36.689H29.2594V37.2788H26.7399V39.1187H29.1071V39.7046H26.7399V41.8062H29.2594V42.3999Z" fill="black"/>
<path d="M34.9899 42.3999H34.2321L31.111 37.6069H31.0797C31.1214 38.1694 31.1422 38.6851 31.1422 39.1538V42.3999H30.5289V36.689H31.2789L34.3922 41.4624H34.4235C34.4183 41.3921 34.4065 41.1668 34.3883 40.7866C34.3701 40.4038 34.3636 40.1304 34.3688 39.9663V36.689H34.9899V42.3999Z" fill="black"/>
<path d="M39.0055 37.2007C38.3779 37.2007 37.8818 37.4103 37.5172 37.8296C37.1552 38.2463 36.9742 38.8179 36.9742 39.5444C36.9742 40.2918 37.1487 40.87 37.4977 41.2788C37.8492 41.6851 38.3492 41.8882 38.9977 41.8882C39.3961 41.8882 39.8505 41.8166 40.361 41.6733V42.2554C39.9651 42.4038 39.4768 42.478 38.8961 42.478C38.055 42.478 37.4052 42.2228 36.9469 41.7124C36.4912 41.202 36.2633 40.4767 36.2633 39.5366C36.2633 38.9481 36.3727 38.4325 36.5914 37.9897C36.8128 37.547 37.1305 37.2059 37.5446 36.9663C37.9612 36.7267 38.4508 36.6069 39.0133 36.6069C39.6123 36.6069 40.1357 36.7163 40.5836 36.9351L40.3024 37.5054C39.8701 37.3022 39.4378 37.2007 39.0055 37.2007Z" fill="black"/>
<path d="M43.0602 39.5444L44.5836 36.689H45.3024L43.3961 40.1851V42.3999H42.7242V40.2163L40.8219 36.689H41.5485L43.0602 39.5444Z" fill="black"/>
<path d="M51.3922 40.8804C51.3922 41.383 51.2099 41.7749 50.8453 42.0562C50.4808 42.3374 49.986 42.478 49.361 42.478C48.6839 42.478 48.163 42.3908 47.7985 42.2163V41.5757C48.0328 41.6746 48.288 41.7528 48.5641 41.8101C48.8401 41.8674 49.1136 41.896 49.3844 41.896C49.8271 41.896 50.1604 41.8127 50.3844 41.646C50.6084 41.4767 50.7203 41.2424 50.7203 40.9429C50.7203 40.745 50.68 40.5835 50.5992 40.4585C50.5211 40.3309 50.3883 40.2137 50.2008 40.1069C50.0159 40.0002 49.7334 39.8791 49.3531 39.7437C48.8219 39.5535 48.4417 39.3283 48.2125 39.0679C47.986 38.8075 47.8727 38.4676 47.8727 38.0483C47.8727 37.6082 48.038 37.258 48.3688 36.9976C48.6995 36.7371 49.137 36.6069 49.6813 36.6069C50.249 36.6069 50.7711 36.7111 51.2477 36.9194L51.0406 37.4976C50.5693 37.2996 50.111 37.2007 49.6656 37.2007C49.3141 37.2007 49.0393 37.2762 48.8414 37.4272C48.6435 37.5783 48.5446 37.7879 48.5446 38.0562C48.5446 38.2541 48.581 38.4168 48.6539 38.5444C48.7268 38.6694 48.8492 38.7853 49.0211 38.8921C49.1956 38.9963 49.4612 39.1121 49.818 39.2397C50.417 39.4533 50.8284 39.6825 51.0524 39.9272C51.2789 40.172 51.3922 40.4897 51.3922 40.8804Z" fill="black"/>
<path d="M55.7438 42.3999H52.5602V36.689H55.7438V37.2788H53.2242V39.1187H55.5914V39.7046H53.2242V41.8062H55.7438V42.3999Z" fill="black"/>
<path d="M57.6774 40.0249V42.3999H57.0133V36.689H58.5797C59.2802 36.689 59.7972 36.8231 60.1305 37.0913C60.4664 37.3595 60.6344 37.7632 60.6344 38.3022C60.6344 39.0575 60.2516 39.5679 59.486 39.8335L61.0367 42.3999H60.2516L58.8688 40.0249H57.6774ZM57.6774 39.4546H58.5875C59.0563 39.4546 59.4 39.3621 59.6188 39.1772C59.8375 38.9897 59.9469 38.7098 59.9469 38.3374C59.9469 37.9598 59.8349 37.6877 59.611 37.521C59.3896 37.3543 59.0328 37.271 58.5406 37.271H57.6774V39.4546Z" fill="black"/>
<path d="M65.2203 36.689H65.9352L63.8766 42.3999H63.2203L61.1735 36.689H61.8766L63.1891 40.3843C63.3401 40.8088 63.4599 41.2215 63.5485 41.6226C63.6422 41.2007 63.7646 40.7801 63.9156 40.3608L65.2203 36.689Z" fill="black"/>
<path d="M66.7242 42.3999V36.689H67.3883V42.3999H66.7242Z" fill="black"/>
<path d="M71.4039 37.2007C70.7763 37.2007 70.2802 37.4103 69.9156 37.8296C69.5537 38.2463 69.3727 38.8179 69.3727 39.5444C69.3727 40.2918 69.5472 40.87 69.8961 41.2788C70.2477 41.6851 70.7477 41.8882 71.3961 41.8882C71.7946 41.8882 72.249 41.8166 72.7594 41.6733V42.2554C72.3636 42.4038 71.8753 42.478 71.2946 42.478C70.4534 42.478 69.8037 42.2228 69.3453 41.7124C68.8896 41.202 68.6617 40.4767 68.6617 39.5366C68.6617 38.9481 68.7711 38.4325 68.9899 37.9897C69.2112 37.547 69.5289 37.2059 69.943 36.9663C70.3597 36.7267 70.8492 36.6069 71.4117 36.6069C72.0107 36.6069 72.5341 36.7163 72.9821 36.9351L72.7008 37.5054C72.2685 37.3022 71.8362 37.2007 71.4039 37.2007Z" fill="black"/>
<path d="M77.1891 42.3999H74.0055V36.689H77.1891V37.2788H74.6696V39.1187H77.0367V39.7046H74.6696V41.8062H77.1891V42.3999Z" fill="black"/>
<path d="M81.6813 40.8804C81.6813 41.383 81.499 41.7749 81.1344 42.0562C80.7698 42.3374 80.275 42.478 79.65 42.478C78.9729 42.478 78.4521 42.3908 78.0875 42.2163V41.5757C78.3219 41.6746 78.5771 41.7528 78.8531 41.8101C79.1292 41.8674 79.4026 41.896 79.6735 41.896C80.1162 41.896 80.4495 41.8127 80.6735 41.646C80.8974 41.4767 81.0094 41.2424 81.0094 40.9429C81.0094 40.745 80.969 40.5835 80.8883 40.4585C80.8102 40.3309 80.6774 40.2137 80.4899 40.1069C80.305 40.0002 80.0224 39.8791 79.6422 39.7437C79.111 39.5535 78.7308 39.3283 78.5016 39.0679C78.275 38.8075 78.1617 38.4676 78.1617 38.0483C78.1617 37.6082 78.3271 37.258 78.6578 36.9976C78.9886 36.7371 79.4261 36.6069 79.9703 36.6069C80.538 36.6069 81.0602 36.7111 81.5367 36.9194L81.3297 37.4976C80.8584 37.2996 80.4 37.2007 79.9547 37.2007C79.6031 37.2007 79.3284 37.2762 79.1305 37.4272C78.9326 37.5783 78.8336 37.7879 78.8336 38.0562C78.8336 38.2541 78.8701 38.4168 78.943 38.5444C79.0159 38.6694 79.1383 38.7853 79.3102 38.8921C79.4847 38.9963 79.7503 39.1121 80.1071 39.2397C80.706 39.4533 81.1175 39.6825 81.3414 39.9272C81.568 40.172 81.6813 40.4897 81.6813 40.8804Z" fill="black"/>
<path d="M42.3705 24.9204H44.0832L41.3637 32.9204H39.5141L36.8 24.9204H38.5128L40.0176 29.681C40.1015 29.9619 40.1872 30.2902 40.2747 30.666C40.3659 31.0381 40.4225 31.2971 40.4444 31.443C40.4845 31.1074 40.6213 30.52 40.8548 29.681L42.3705 24.9204Z" fill="black"/>
<path d="M51.5306 32.9204H49.6044L47.5087 29.5497L46.7918 30.064V32.9204H45.0955V24.9204H46.7918V28.5811L47.4594 27.64L49.6263 24.9204H51.5087L48.718 28.4608L51.5306 32.9204Z" fill="black"/>
<path d="M57.101 24.9204H58.8137L56.0942 32.9204H54.2446L51.5306 24.9204H53.2433L54.7481 29.681C54.832 29.9619 54.9177 30.2902 55.0052 30.666C55.0964 31.0381 55.153 31.2971 55.1749 31.443C55.215 31.1074 55.3518 30.52 55.5853 29.681L57.101 24.9204Z" fill="black"/>
</svg>
