<svg width="81" height="149" viewBox="0 0 81 149" fill="none" xmlns="http://www.w3.org/2000/svg">
<path d="M7.67827 149V143.604H27.1852C30.6439 143.604 33.2725 143.259 35.071 142.567C36.8695 141.737 38.1147 140.146 38.8064 137.794C39.6365 135.304 40.0515 131.499 40.0515 126.38V10.5836C33.4109 19.0228 27.4619 25.11 22.2047 28.8454C17.0859 32.4424 12.1746 34.2409 7.47075 34.2409C4.84215 34.2409 2.90529 33.6876 1.66017 32.5808C0.553389 31.474 0 30.1597 0 28.6379C6.50232 27.9461 12.4513 25.9401 17.8468 22.6198C23.2423 19.1611 28.9146 14.3189 34.8635 8.09332L42.9568 0H48.9749V126.38C48.9749 131.499 49.3208 135.304 50.0125 137.794C50.8426 140.146 52.1569 141.737 53.9554 142.567C55.7539 143.259 58.3825 143.604 61.8412 143.604H80.1031V149H7.67827Z" fill="black"/>
</svg>
