<svg width="87" height="149" viewBox="0 0 87 149" fill="none" xmlns="http://www.w3.org/2000/svg">
<path d="M38.1635 149C29.3669 149 22.1267 147.917 16.4428 145.752C10.7589 143.587 6.56358 140.812 3.85695 137.429C1.28565 133.911 0 130.257 0 126.467C0 122.949 0.811989 120.377 2.43597 118.753C4.19528 116.994 6.36058 116.114 8.93188 116.114C8.93188 123.287 11.3002 129.174 16.0368 133.775C20.9087 138.376 28.2843 140.677 38.1635 140.677C44.3887 140.677 50.0727 139.527 55.2153 137.226C60.3579 134.79 64.4178 131.136 67.3951 126.264C70.3724 121.257 71.861 114.761 71.861 106.777C71.861 97.0327 68.4101 89.3865 61.5082 83.8379C54.7416 78.2893 44.7947 75.515 31.6676 75.515H25.9837V67.5981H31.4646C41.7498 67.5981 50.208 64.6885 56.8392 58.8692C63.6058 53.05 66.9891 44.9977 66.9891 34.7125C66.9891 26.1866 64.7561 19.6231 60.2902 15.0218C55.9596 10.2852 49.5313 7.91689 41.0054 7.91689C31.6676 7.91689 24.9687 10.6235 20.9087 16.0368C16.8488 21.45 14.8188 28.2166 14.8188 36.3365C11.4355 36.3365 8.66122 35.5922 6.49591 34.1035C4.33061 32.4796 3.24796 29.7729 3.24796 25.9837C3.24796 21.5177 4.66894 17.3224 7.5109 13.3978C10.3529 9.33788 14.5481 6.08992 20.0967 3.65395C25.6453 1.21799 32.6826 0 41.2085 0C53.253 0 62.8615 2.9773 70.0341 8.93189C77.342 14.7511 80.9959 22.8034 80.9959 33.0886C80.9959 39.9905 79.5073 46.0127 76.53 51.1553C73.5527 56.1626 69.6281 60.2225 64.7561 63.3352C60.0195 66.4478 54.8769 68.6807 49.3283 70.0341C53.253 70.44 57.3129 71.3874 61.5082 72.876C65.8388 74.2293 69.8311 76.327 73.485 79.1689C77.139 81.8756 80.1163 85.5295 82.4169 90.1308C84.8529 94.5967 86.0708 100.213 86.0708 106.98C86.0708 116.994 83.7026 125.114 78.966 131.339C74.3647 137.429 68.4101 141.895 61.1022 144.737C53.7943 147.579 46.148 149 38.1635 149Z" fill="black"/>
</svg>
