<svg width="88" height="149" viewBox="0 0 88 149" fill="none" xmlns="http://www.w3.org/2000/svg">
<path d="M0 149V138.71L37.6616 95.4917C45.2076 86.8481 51.1759 79.4392 55.5663 73.2652C60.0939 66.954 63.3181 60.9857 65.239 55.3605C67.297 49.7353 68.326 43.6984 68.326 37.25C68.326 32.0364 67.4342 27.2343 65.6506 22.8439C64.0042 18.4535 61.1915 14.8863 57.2127 12.1423C53.3711 9.39825 48.2261 8.02624 41.7776 8.02624C32.0364 8.02624 25.1077 10.8389 20.9917 16.4641C16.8757 21.9521 14.8177 28.8807 14.8177 37.25C11.5249 37.25 8.71225 36.4954 6.37984 34.9862C4.18462 33.3398 3.08702 30.5272 3.08702 26.5483C3.08702 22.1579 4.45902 17.9733 7.20304 13.9945C10.0843 9.87845 14.4061 6.51703 20.1685 3.91022C25.9309 1.30341 33.134 0 41.7776 0C50.6957 0 58.1731 1.64641 64.2099 4.93923C70.2468 8.09485 74.7744 12.4167 77.7928 17.9047C80.8112 23.2555 82.3204 29.2238 82.3204 35.8094C82.3204 42.8066 81.017 49.3237 78.4102 55.3605C75.9406 61.3973 72.2362 67.64 67.297 74.0884C62.3577 80.3996 56.2523 87.6027 48.9807 95.6975L11.5249 137.681H65.4447C71.3444 137.681 75.186 136.378 76.9696 133.771C78.7532 131.164 79.988 127.459 80.674 122.657L81.2914 117.718H87.8771L86.8481 149H0Z" fill="black"/>
</svg>
