<svg width="30" height="30" viewBox="0 0 30 30" fill="none" xmlns="http://www.w3.org/2000/svg">
<path d="M4.11688 25.3629H25.856C27.6185 25.3609 29.047 23.9326 29.049 22.1699V7.41852C29.047 5.65604 27.6185 4.2275 25.856 4.22559H4.11688C2.3544 4.2275 0.925861 5.65604 0.92395 7.41852V22.1699C0.925861 23.9326 2.3544 25.3609 4.11688 25.3629ZM4.11688 24.4118C3.62627 24.4124 3.14903 24.2511 2.75946 23.9526L9.26082 17.3028C9.38141 17.1816 9.42747 17.005 9.38183 16.8404C9.33619 16.6757 9.20584 16.5483 9.04025 16.5065C8.87444 16.4645 8.69909 16.5146 8.58062 16.6381L2.13998 23.2259C1.9659 22.9013 1.87482 22.5385 1.87504 22.1699V8.46684L12.927 17.8251C14.1169 18.8379 15.8662 18.8375 17.0553 17.8232L28.0979 8.45771V22.1699C28.0983 22.54 28.0066 22.9038 27.8312 23.2293L21.3519 16.6368C21.1675 16.4513 20.8679 16.4494 20.6811 16.6326C20.4945 16.8164 20.4911 17.116 20.6737 17.3035L27.2107 23.9547C26.8215 24.2517 26.3456 24.4124 25.856 24.4118H4.11688ZM4.11688 5.17667H25.856C27.016 5.17837 27.9836 6.06322 28.0885 7.21875L16.4403 17.098C15.6053 17.81 14.3769 17.8104 13.5416 17.099L1.88395 7.22788C1.98373 6.06874 2.95329 5.17837 4.11688 5.17667Z" fill="black"/>
</svg>
