<svg width="30" height="30" viewBox="0 0 30 30" fill="none" xmlns="http://www.w3.org/2000/svg">
<path d="M18.804 19.421C18.8582 19.3329 18.9123 19.2464 18.9665 19.1567C21.4014 15.1254 22.6267 11.599 22.6091 8.67659C22.5983 6.66597 21.7921 4.74136 20.3666 3.32332C18.9412 1.90528 17.0124 1.10911 15.0018 1.10876C12.9911 1.10842 11.0621 1.90395 9.63614 3.3215C8.21021 4.73906 7.40335 6.66339 7.39185 8.67402C7.37404 11.599 8.59959 15.1259 11.0345 19.1567C11.0886 19.2464 11.1428 19.3329 11.1969 19.421C6.07068 20.0546 2.67224 21.8867 2.67224 24.0619C2.67224 26.7928 8.0863 28.932 15.0004 28.932C21.9144 28.932 27.3285 26.7928 27.3285 24.0619C27.3285 21.8867 23.9301 20.0546 18.804 19.421ZM8.21216 8.67659C8.20708 7.78178 8.37895 6.8948 8.7179 6.06665C9.05685 5.2385 9.55618 4.48554 10.1872 3.85107C10.8182 3.2166 11.5684 2.71314 12.3947 2.36964C13.2209 2.02615 14.107 1.84941 15.0018 1.84958C15.8966 1.84975 16.7826 2.02683 17.6087 2.37063C18.4348 2.71444 19.1849 3.21818 19.8156 3.8529C20.4464 4.48761 20.9454 5.24076 21.2841 6.06904C21.6227 6.89731 21.7942 7.78436 21.7888 8.67917C21.824 14.5053 16.3771 21.691 15.0004 23.4141C13.6236 21.691 8.17654 14.505 8.21216 8.67659ZM15.0004 28.1117C8.11654 28.1117 3.49255 26.0175 3.49255 24.0619C3.49255 22.3275 6.92123 20.7139 11.6802 20.1905C12.6006 21.6276 13.6049 23.0092 14.6879 24.3282C14.7264 24.3735 14.7743 24.4099 14.8282 24.4349C14.8822 24.4599 14.9409 24.4728 15.0004 24.4728C15.0598 24.4728 15.1186 24.4599 15.1725 24.4349C15.2265 24.4099 15.2743 24.3735 15.3128 24.3282C16.3959 23.0092 17.4003 21.6276 18.3208 20.1905C23.0786 20.7139 26.5084 22.3266 26.5084 24.0619C26.5082 26.0175 21.8842 28.1117 15.0004 28.1117Z" fill="black"/>
<path d="M11.6466 25.7361C9.82644 25.5031 8.36535 25.093 7.53378 24.5818C7.48789 24.5525 7.43662 24.5326 7.38295 24.5232C7.32929 24.5139 7.27431 24.5154 7.22122 24.5276C7.16813 24.5398 7.118 24.5624 7.07374 24.5941C7.02949 24.6259 6.99201 24.6661 6.96348 24.7125C6.93495 24.7589 6.91595 24.8105 6.90758 24.8644C6.89921 24.9182 6.90165 24.9731 6.91475 25.026C6.92784 25.0789 6.95134 25.1286 6.98386 25.1723C7.01639 25.216 7.05729 25.2528 7.10418 25.2805C8.033 25.8514 9.60941 26.3023 11.5425 26.5496C11.5599 26.5519 11.5775 26.553 11.595 26.5529C11.699 26.5524 11.7989 26.5124 11.8745 26.4411C11.9501 26.3697 11.9958 26.2723 12.0024 26.1686C12.0089 26.0648 11.9758 25.9624 11.9098 25.8822C11.8437 25.8019 11.7497 25.7497 11.6466 25.7361Z" fill="black"/>
<path d="M15.6889 25.9319C15.1173 25.9451 14.5219 25.942 13.9409 25.9207C13.8871 25.9187 13.8333 25.9273 13.7828 25.9461C13.7323 25.9649 13.686 25.9934 13.6465 26.0301C13.607 26.0668 13.5751 26.1109 13.5527 26.1599C13.5302 26.2089 13.5176 26.2619 13.5157 26.3157C13.5137 26.3696 13.5223 26.4233 13.5411 26.4738C13.5599 26.5244 13.5884 26.5707 13.6251 26.6102C13.6618 26.6497 13.7059 26.6815 13.7549 26.704C13.8039 26.7264 13.8568 26.739 13.9107 26.741C14.2712 26.7541 14.6373 26.7609 15.0001 26.7609C15.2387 26.7609 15.4747 26.7581 15.7081 26.7525C15.8169 26.75 15.9202 26.7043 15.9953 26.6257C16.0704 26.547 16.1112 26.4417 16.1087 26.3329C16.1081 26.2789 16.0967 26.2254 16.0752 26.1758C16.0537 26.1262 16.0224 26.0813 15.9833 26.044C15.9442 26.0066 15.898 25.9774 15.8474 25.9582C15.7969 25.939 15.743 25.93 15.6889 25.9319Z" fill="black"/>
<path d="M18.4636 8.6765C18.4635 7.99148 18.2602 7.32187 17.8796 6.75234C17.4989 6.18281 16.958 5.73895 16.325 5.47687C15.6921 5.2148 14.9957 5.14629 14.3239 5.28001C13.652 5.41372 13.0349 5.74366 12.5506 6.22809C12.0663 6.71253 11.7364 7.3297 11.6029 8.00157C11.4693 8.67345 11.5379 9.36984 11.8001 10.0027C12.0623 10.6356 12.5063 11.1765 13.0759 11.557C13.6455 11.9375 14.3152 12.1406 15.0002 12.1406C15.9185 12.1394 16.7989 11.7741 17.4482 11.1247C18.0975 10.4753 18.4626 9.59482 18.4636 8.6765ZM12.3569 8.6765C12.357 8.15373 12.5121 7.64273 12.8026 7.2081C13.0931 6.77348 13.506 6.43476 13.989 6.23477C14.472 6.03477 15.0035 5.98249 15.5162 6.08454C16.0289 6.18658 16.4998 6.43837 16.8694 6.80806C17.2391 7.17774 17.4908 7.64873 17.5927 8.16146C17.6947 8.6742 17.6423 9.20565 17.4422 9.68862C17.2422 10.1716 16.9034 10.5844 16.4687 10.8748C16.034 11.1652 15.523 11.3202 15.0002 11.3202C14.2993 11.3195 13.6273 11.0407 13.1318 10.5451C12.6362 10.0494 12.3575 9.3774 12.3569 8.6765Z" fill="black"/>
</svg>
