<svg width="30" height="30" viewBox="0 0 30 30" fill="none" xmlns="http://www.w3.org/2000/svg">
<path d="M29.2131 23.1436L23.141 19.0942C22.3705 18.5844 21.3376 18.7521 20.7679 19.4796L18.9991 21.7537C18.7718 22.0535 18.3586 22.1404 18.0298 21.9577L17.6933 21.7722C16.578 21.1643 15.1902 20.4075 12.3941 17.6104C9.59804 14.8133 8.83966 13.4245 8.23172 12.3112L8.04724 11.9747C7.86205 11.6459 7.94735 11.231 8.24719 11.0019L10.5198 9.23364C11.247 8.6639 11.4149 7.63128 10.9058 6.86048L6.85638 0.788373C6.33456 0.00345041 5.28765 -0.232179 4.47982 0.253433L1.94068 1.77869C1.14287 2.24773 0.55755 3.00734 0.30745 3.89836C-0.606887 7.22986 0.08096 12.9795 8.55072 21.4503C15.2882 28.1873 20.304 29.999 23.7515 29.999C24.5449 30.0024 25.3352 29.8992 26.1012 29.6921C26.9924 29.4423 27.7521 28.8569 28.2208 28.0588L29.7476 25.5212C30.2339 24.7132 29.9984 23.6657 29.2131 23.1436ZM28.8862 25.0083L27.3629 27.5474C27.0263 28.1234 26.4799 28.5469 25.8381 28.7292C22.7626 29.5736 17.3894 28.8742 9.25807 20.7429C1.12676 12.6116 0.427432 7.23888 1.27182 4.16287C1.45437 3.52031 1.87841 2.97319 2.45512 2.63609L4.99425 1.11282C5.34477 0.901911 5.79915 1.00414 6.02559 1.34476L8.22528 4.64725L10.0715 7.41633C10.2926 7.75068 10.22 8.1988 9.90456 8.4462L7.6314 10.2144C6.93963 10.7434 6.74208 11.7005 7.16799 12.4601L7.3485 12.7881C7.98742 13.9599 8.78178 15.4176 11.6819 18.3173C14.5819 21.2168 16.0392 22.0112 17.2105 22.6501L17.539 22.8311C18.2985 23.2569 19.2557 23.0594 19.7846 22.3677L21.5529 20.0945C21.8003 19.7792 22.2483 19.7067 22.5827 19.9275L28.6543 23.9769C28.9951 24.2032 29.0974 24.6578 28.8862 25.0083Z" fill="black"/>
<path d="M16.9993 5.00262C21.6908 5.00783 25.4928 8.80983 25.4981 13.5014C25.4981 13.7775 25.7218 14.0013 25.998 14.0013C26.2741 14.0013 26.4979 13.7775 26.4979 13.5014C26.4921 8.25784 22.2428 4.00855 16.9993 4.00281C16.7232 4.00281 16.4994 4.2266 16.4994 4.50271C16.4994 4.77883 16.7232 5.00262 16.9993 5.00262Z" fill="black"/>
<path d="M16.9993 8.00213C20.0349 8.00571 22.4949 10.4657 22.4985 13.5013C22.4985 13.7774 22.7224 14.0012 22.9984 14.0012C23.2745 14.0012 23.4983 13.7774 23.4983 13.5013C23.4942 9.9137 20.5869 7.00642 16.9993 7.00232C16.7232 7.00232 16.4994 7.22611 16.4994 7.50223C16.4994 7.77834 16.7232 8.00213 16.9993 8.00213Z" fill="black"/>
<path d="M16.9993 11.0018C18.3791 11.0034 19.4972 12.1216 19.4989 13.5014C19.4989 13.7775 19.7228 14.0013 19.9989 14.0013C20.2749 14.0013 20.4988 13.7775 20.4988 13.5014C20.4965 11.5696 18.9311 10.0041 16.9993 10.002C16.7232 10.002 16.4994 10.2257 16.4994 10.5019C16.4994 10.778 16.7232 11.0018 16.9993 11.0018Z" fill="black"/>
</svg>
